<?xml version="1.0" encoding="UTF-8"?>
<svg width="244px" height="229px" viewBox="0 0 244 229" version="1.1" xmlns="http://www.w3.org/2000/svg" xmlns:xlink="http://www.w3.org/1999/xlink">
    <!-- Generator: Sketch 53.2 (72643) - https://sketchapp.com -->
    <title>back view</title>
    <desc>Created with Sketch.</desc>
    <g id="Page-1" stroke="none" stroke-width="1" fill="none" fill-rule="evenodd">
        <g id="hatchback" transform="translate(-908.000000, -361.000000)">
            <g id="back-view" transform="translate(909.000000, 363.000000)">
                <polyline id="Fill-189" fill="#777671" points="217.253 200.102202 23.68 200.101202 23.68 186.120202 217.253 186.120202 217.253 200.102202"></polyline>
                <polygon id="Stroke-190" stroke="#2C2C2B" stroke-width="1.633" stroke-linejoin="round" points="217.253 200.102202 23.68 200.101202 23.68 186.120202 217.253 186.120202"></polygon>
                <path d="M181.403,187.897202 L163.893,187.897202 C161.623,187.897202 159.763,189.755202 159.763,192.024202 L159.763,199.878202 C159.763,202.148202 161.623,204.005202 163.893,204.005202 L181.403,204.005202 C183.673,204.005202 185.533,202.148202 185.533,199.878202 L185.533,192.024202 C185.533,189.755202 183.673,187.897202 181.403,187.897202" id="Fill-191" fill="#A3A29C"></path>
                <path d="M181.403,187.897202 L163.893,187.897202 C161.623,187.897202 159.763,189.755202 159.763,192.024202 L159.763,199.878202 C159.763,202.148202 161.623,204.005202 163.893,204.005202 L181.403,204.005202 C183.673,204.005202 185.533,202.148202 185.533,199.878202 L185.533,192.024202 C185.533,189.755202 183.673,187.897202 181.403,187.897202 Z" id="Stroke-192" stroke="#2C2C2B" stroke-width="1.93" stroke-linejoin="round"></path>
                <path d="M177.323,197.729202 C177.323,195.088202 175.233,192.948202 172.653,192.948202 C170.073,192.948202 167.983,195.088202 167.983,197.729202 C167.983,200.369202 170.073,202.509202 172.653,202.509202 C175.233,202.509202 177.323,200.369202 177.323,197.729202" id="Fill-193" fill="#A3A29C"></path>
                <path d="M177.323,197.729202 C177.323,195.088202 175.233,192.948202 172.653,192.948202 C170.073,192.948202 167.983,195.088202 167.983,197.729202 C167.983,200.369202 170.073,202.509202 172.653,202.509202 C175.233,202.509202 177.323,200.369202 177.323,197.729202 Z" id="Stroke-194" stroke="#2C2C2B" stroke-width="1.633" stroke-linejoin="round"></path>
                <path d="M31.034,191.448202 L31.034,217.486202 C31.034,221.757202 27.696,225.218202 23.579,225.218202 L8.195,225.218202 C4.078,225.218202 0.74,221.756202 0.74,217.486202 L0.74,145.292202 L31.034,191.448202" id="Fill-195" fill="#A3A29C"></path>
                <path d="M31.034,191.448202 L31.034,217.486202 C31.034,221.757202 27.696,225.218202 23.579,225.218202 L8.195,225.218202 C4.078,225.218202 0.74,221.756202 0.74,217.486202 L0.74,145.292202 L31.034,191.448202 Z" id="Stroke-196" stroke="#2C2C2B" stroke-width="2.889" stroke-linejoin="round"></path>
                <path d="M210.373,191.449202 L210.373,217.487202 C210.373,221.757202 213.713,225.219202 217.833,225.219202 L233.213,225.219202 C237.333,225.219202 240.663,221.757202 240.663,217.487202 L240.663,145.293202 L210.373,191.449202" id="Fill-197" fill="#A3A29C"></path>
                <path d="M210.373,191.449202 L210.373,217.487202 C210.373,221.757202 213.713,225.219202 217.833,225.219202 L233.213,225.219202 C237.333,225.219202 240.663,221.757202 240.663,217.487202 L240.663,145.293202 L210.373,191.449202 Z" id="Stroke-198" stroke="#2C2C2B" stroke-width="2.889" stroke-linejoin="round"></path>
                <path d="M206.983,192.895202 C211.333,192.612202 215.643,192.303202 219.923,191.970202 C231.533,191.065202 240.593,181.196202 240.853,169.115202 C241.023,161.134202 241.063,152.930202 240.943,144.515202 C240.803,133.849202 240.413,123.544202 239.843,113.624202 C238.003,107.304202 236.163,100.984202 234.323,94.6642016 C234.263,90.6482016 233.923,86.0772016 233.103,81.0992016 C232.613,78.0952016 232.003,75.3112016 231.333,72.7632016 C230.213,71.2212016 228.883,69.5602016 227.313,67.8592016 C225.933,66.3622016 224.573,65.0602016 223.293,63.9372016 C219.003,50.6682016 212.973,35.7872016 204.383,20.2972016 C203.003,17.7972016 201.593,15.3742016 200.183,13.0262016 C197.053,7.81120164 191.833,4.31920164 185.953,3.56920164 C185.463,3.50620164 184.963,3.44320164 184.453,3.38020164 C175.473,2.27520164 168.823,1.81220164 161.243,1.29620164 C155.243,0.887201644 147.113,0.345201644 136.305,0.111201644 C130.1,-0.0227983561 124.791,-0.0157983561 120.704,0.0292016439 C116.617,-0.0157983561 111.308,-0.0227983561 105.102,0.111201644 C94.297,0.344201644 86.168,0.887201644 80.163,1.29620164 C72.584,1.81220164 65.935,2.27420164 56.958,3.38020164 C56.446,3.44320164 55.943,3.50620164 55.451,3.56920164 C49.571,4.31920164 44.355,7.81120164 41.221,13.0262016 C39.81,15.3742016 38.409,17.7972016 37.022,20.2962016 C28.431,35.7872016 22.403,50.6682016 18.111,63.9362016 C16.832,65.0602016 15.475,66.3612016 14.093,67.8592016 C12.524,69.5592016 11.194,71.2202016 10.074,72.7622016 C9.408,75.3102016 8.796,78.0942016 8.301,81.0982016 C7.48,86.0762016 7.146,90.6472016 7.08,94.6642016 C5.242,100.984202 3.403,107.304202 1.564,113.624202 C0.991,123.543202 0.607,133.849202 0.461,144.515202 C0.347,152.929202 0.386,161.133202 0.558,169.114202 C0.817,181.195202 9.87,191.064202 21.489,191.970202 C25.765,192.303202 30.077,192.611202 34.422,192.894202 C64.604,194.860202 93.421,195.389202 120.704,194.856202 C147.983,195.389202 176.803,194.861202 206.983,192.895202 Z" id="Fill-199" fill="#F8F7F6"></path>
                <path d="M33.634,71.2922016 L208.31502,71.2922016 C217.408761,89.8238405 214.731421,106.60384 200.283,121.632202 C198.88076,121.632868 145.826426,121.632868 41.12,121.632202 C33.0945999,114.979622 28.7769044,106.589705 28.1669135,96.4624516 C27.5569226,86.3351978 29.3792847,77.9451145 33.634,71.2922016 Z" id="4anta" fill="#FFFFFF"></path>
                <path d="M120.704,194.856202 C147.983,195.389202 176.803,194.861202 206.983,192.895202 C211.333,192.612202 215.643,192.303202 219.923,191.970202 C231.533,191.065202 240.593,181.196202 240.853,169.115202 C241.023,161.134202 241.063,152.930202 240.943,144.515202 C240.803,133.849202 240.413,123.544202 239.843,113.624202 C238.003,107.304202 236.163,100.984202 234.323,94.6642016 C234.263,90.6482016 233.923,86.0772016 233.103,81.0992016 C232.613,78.0952016 232.003,75.3112016 231.333,72.7632016 C230.213,71.2212016 228.883,69.5602016 227.313,67.8592016 C225.933,66.3622016 224.573,65.0602016 223.293,63.9372016 C219.003,50.6682016 212.973,35.7872016 204.383,20.2972016 C203.003,17.7972016 201.593,15.3742016 200.183,13.0262016 C197.053,7.81120164 191.833,4.31920164 185.953,3.56920164 C185.463,3.50620164 184.963,3.44320164 184.453,3.38020164 C175.473,2.27520164 168.823,1.81220164 161.243,1.29620164 C155.243,0.887201644 147.113,0.345201644 136.305,0.111201644 C130.1,-0.0227983561 124.791,-0.0157983561 120.704,0.0292016439 C116.617,-0.0157983561 111.308,-0.0227983561 105.102,0.111201644 C94.297,0.344201644 86.168,0.887201644 80.163,1.29620164 C72.584,1.81220164 65.935,2.27420164 56.958,3.38020164 C56.446,3.44320164 55.943,3.50620164 55.451,3.56920164 C49.571,4.31920164 44.355,7.81120164 41.221,13.0262016 C39.81,15.3742016 38.409,17.7972016 37.022,20.2962016 C28.431,35.7872016 22.403,50.6682016 18.111,63.9362016 C16.832,65.0602016 15.475,66.3612016 14.093,67.8592016 C12.524,69.5592016 11.194,71.2202016 10.074,72.7622016 C9.408,75.3102016 8.796,78.0942016 8.301,81.0982016 C7.48,86.0762016 7.146,90.6472016 7.08,94.6642016 C5.242,100.984202 3.403,107.304202 1.564,113.624202 C0.991,123.543202 0.607,133.849202 0.461,144.515202 C0.347,152.929202 0.386,161.133202 0.558,169.114202 C0.817,181.195202 9.87,191.064202 21.489,191.970202 C25.765,192.303202 30.077,192.611202 34.422,192.894202 C64.604,194.860202 93.421,195.389202 120.704,194.856202 Z" id="Stroke-200" stroke="#2C2C2B" stroke-width="2.889" stroke-linejoin="round"></path>
                <path d="M21.421,63.6092016 C19.95,64.6152016 18.341,65.8532016 16.693,67.3692016 C14.289,69.5782016 12.431,71.8012016 11.02,73.7432016 C10.363,78.4832016 9.88,83.7962016 9.759,89.5972016 C9.588,97.7162016 10.162,104.982202 11.02,111.172202 C15.014,113.186202 19.592,115.219202 24.73,117.056202 C30.682,119.184202 36.218,120.633202 41.12,121.632202 C38.931,119.651202 29.557,110.723202 28.197,95.8082016 C27.161,84.4432016 31.351,75.8932016 33.083,72.7622016 C31.236,70.9702016 29.089,69.0812016 26.621,67.2052016 C24.823,65.8382016 23.076,64.6472016 21.421,63.6092016" id="Left-light" stroke="#2C2C2B" stroke-width="2" fill="#A3A29C"></path>
                <path d="M10.191,103.657202 C8.777,106.057202 7.348,108.725202 5.977,111.662202 C3.79,116.345202 2.193,120.767202 1.011,124.720202 L10.191,103.657202 Z" id="Path" stroke="#2C2C2B" stroke-width="1.633" stroke-linejoin="round"></path>
                <path d="M211.473,42.3622016 C209.763,37.2962016 207.973,32.5002016 206.153,27.9792016 C200.893,25.9182016 196.373,24.6512016 193.043,23.8522016 C189.703,23.0532016 187.053,22.6062016 184.963,22.2582016 C179.433,21.3362016 175.013,20.9272016 172.273,20.7052016 C162.643,19.9252016 153.303,19.8042016 141.939,19.7252016 C136.001,19.6832016 105.052,19.6832016 99.113,19.7242016 C87.746,19.8032016 78.408,19.9252016 68.777,20.7052016 C66.038,20.9272016 61.621,21.3362016 56.091,22.2582016 C54.004,22.6062016 51.354,23.0522016 48.014,23.8512016 C44.676,24.6502016 40.161,25.9182016 34.895,27.9782016 C33.076,32.4992016 31.289,37.2952016 29.576,42.3612016 C27.162,49.5042016 25.18,56.3442016 23.548,62.7922016 C25.511,64.1052016 27.634,65.6952016 29.813,67.6142016 C31.225,68.8582016 32.496,70.0962016 33.634,71.2912016 C49.736,71.1292016 65.836,71.0062016 81.936,70.9242016 C94.797,70.8582016 107.661,70.8172016 120.526,70.8012016 C133.392,70.8172016 146.253,70.8582016 159.113,70.9242016 C175.213,71.0072016 191.313,71.1292016 207.423,71.2922016 C208.553,70.0962016 209.823,68.8592016 211.243,67.6142016 C213.423,65.6962016 215.543,64.1062016 217.503,62.7932016 C215.873,56.3442016 213.893,49.5052016 211.473,42.3622016" id="back-glass" stroke="#2C2C2B" stroke-width="2" fill="#A3A29C"></path>
                <path d="M219.983,63.6102016 C221.453,64.6162016 223.063,65.8542016 224.713,67.3692016 C227.113,69.5792016 228.973,71.8012016 230.383,73.7432016 C231.043,78.4842016 231.523,83.7972016 231.653,89.5982016 C231.823,97.7172016 231.243,104.983202 230.383,111.172202 C226.393,113.187202 221.813,115.219202 216.673,117.056202 C210.723,119.185202 205.193,120.634202 200.283,121.633202 C202.473,119.651202 211.853,110.724202 213.213,95.8092016 C214.243,84.4442016 210.053,75.8942016 208.323,72.7632016 C210.173,70.9712016 212.323,69.0822016 214.783,67.2062016 C216.583,65.8392016 218.333,64.6472016 219.983,63.6102016" id="right-light" stroke="#2C2C2B" stroke-width="2" fill="#A3A29C"></path>
                <path d="M9.72882592,103.658202 L1.011,123.920702 L1.011,177.594391 C9.01092949,189.195265 20.3055962,194.313202 34.895,192.948202 C46.4580178,193.056868 96.6706845,193.757938 185.533,195.051412 C220.054149,194.353917 237.827769,189.019809 238.853862,179.049086 C239.879954,169.078363 240.393,149.939402 240.393,121.632202 L231.682623,105.090103 L230.383,111.172202 L200.283,121.633202 L41.12,121.632202 C24.666,117.230714 14.6326667,113.744047 11.02,111.172202 C7.40733333,108.600356 6.97694197,106.09569 9.72882592,103.658202 Z" id="Path-2" fill="#FFFFFF"></path>
                <path d="M200.283,121.633202 L191.813,123.527202 C183.823,125.310202 175.683,126.209202 167.513,126.209202 L120.585,126.209202 L120.822,126.209202 L73.892,126.209202 C65.725,126.209202 57.581,125.310202 49.597,123.526202 L41.12,121.632202 L200.283,121.633202 Z" id="Stroke-226" stroke="#2C2C2B" stroke-width="1.633" stroke-linejoin="round"></path>
                <path d="M183.813,193.111202 L183.813,193.111202 C176.123,190.195202 167.833,188.690202 159.443,188.690202 L119.404,188.690202 L119.64,188.690202 L79.6,188.690202 C71.215,188.690202 62.92,190.195202 55.235,193.110202 L55.235,193.111202" id="Stroke-227" stroke="#2C2C2B" stroke-width="1.494" stroke-linejoin="round"></path>
                <path d="M231.213,103.658202 C232.633,106.057202 234.063,108.725202 235.433,111.663202 C237.613,116.346202 239.213,120.768202 240.393,124.721202" id="Stroke-228" stroke="#2C2C2B" stroke-width="1.633" stroke-linejoin="round"></path>
                <path d="M203.203,19.4392016 C201.863,17.5482016 199.563,14.8372016 195.993,12.8192016 C194.253,11.8352016 192.663,11.2702016 189.023,10.3672016 C181.273,8.44720164 174.983,7.65920164 172.713,7.38520164 C165.923,6.56720164 160.813,6.22620164 160.413,6.20020164 C144.923,5.18720164 126.948,5.09520164 120.704,5.08720164 C114.459,5.09520164 96.486,5.18720164 80.991,6.19920164 C80.59,6.22520164 75.486,6.56720164 68.698,7.38420164 C66.424,7.65820164 60.133,8.44720164 52.388,10.3672016 C48.747,11.2702016 47.154,11.8352016 45.414,12.8192016 C41.846,14.8362016 39.545,17.5472016 38.204,19.4382016 L34.895,27.9782016 C57.1440876,22.4551176 75.1332056,19.6935755 88.8623538,19.6935755 C109.456076,19.6935755 167.343,18.0436714 183.813,21.8575668 C194.793,24.4001637 202.479516,27.0451648 206.872549,29.7925698 L203.203,19.4392016 Z" id="Path" stroke="#2C2C2B" stroke-width="1.633" fill="#FFFFFF" stroke-linejoin="round"></path>
            </g>
        </g>
    </g>
</svg>