<?xml version="1.0" encoding="UTF-8"?>
<svg width="506px" height="249px" viewBox="0 0 506 249" version="1.1" xmlns="http://www.w3.org/2000/svg" xmlns:xlink="http://www.w3.org/1999/xlink">
    <!-- Generator: Sketch 53.2 (72643) - https://sketchapp.com -->
    <title>el s2f </title>
    <desc>Created with Sketch.</desc>
    <g id="Page-1" stroke="none" stroke-width="1" fill="none" fill-rule="evenodd">
        <g id="hatchback" transform="translate(-477.000000, -701.000000)">
            <g id="el-s2f-" transform="translate(479.000000, 702.000000)">
                <path d="M494.883,214.460401 C494.413,216.415401 493.473,220.017401 491.807,224.374401 C490.033,229.010401 488.091,234.087401 484.96,237.780401 C478.963,244.851401 469.654,245.610401 465.42,245.633401 L149.829,241.917401 C125.493,242.856401 101.157,243.796401 76.821,244.736401 C37.074,246.270401 3.629,213.409401 1.342,170.506401 C1.298,169.676401 1.255,168.844401 1.212,168.010401 C0.433,152.630401 0.054,137.758401 0,123.441401 L0.003,123.181401 C0.284,108.864401 0.898,93.9934011 1.921,78.6124011 C1.977,77.7794011 2.033,76.9474011 2.09,76.1174011 C5.057,33.2144011 39.024,0.352401119 78.745,1.88740112 C103.067,2.82640112 127.388,3.76640112 151.71,4.70640112 L467.359,0.990401119 C471.593,1.01340112 480.89,1.77240112 486.774,8.84340112 C489.847,12.5364011 491.709,17.6124011 493.409,22.2494011 C495.007,26.6054011 495.889,30.2084011 496.328,32.1624011 C501.242,54.0564011 502.063,98.3584011 502.063,98.3584011 C502.178,104.554401 501.881,142.068401 501.667,148.265401 C501.667,148.265401 500.144,192.567401 494.883,214.460401 Z" id="Fill-75" fill="#F8F7F6"></path>
                <path d="M501.667,148.265401 C501.667,148.265401 500.144,192.567401 494.883,214.460401 C494.413,216.415401 493.473,220.017401 491.807,224.374401 C490.033,229.010401 488.091,234.087401 484.96,237.780401 C478.963,244.851401 469.654,245.610401 465.42,245.633401 L149.829,241.917401 C125.493,242.856401 101.157,243.796401 76.821,244.736401 C37.074,246.270401 3.629,213.409401 1.342,170.506401 C1.298,169.676401 1.255,168.844401 1.212,168.010401 C0.433,152.630401 0.054,137.758401 0,123.441401 L0.003,123.181401 C0.284,108.864401 0.898,93.9934011 1.921,78.6124011 C1.977,77.7794011 2.033,76.9474011 2.09,76.1174011 C5.057,33.2144011 39.024,0.352401119 78.745,1.88740112 C103.067,2.82640112 127.388,3.76640112 151.71,4.70640112 L467.359,0.990401119 C471.593,1.01340112 480.89,1.77240112 486.774,8.84340112 C489.847,12.5364011 491.709,17.6124011 493.409,22.2494011 C495.007,26.6054011 495.889,30.2084011 496.328,32.1624011 C501.242,54.0564011 502.063,98.3584011 502.063,98.3584011 C502.178,104.554401 501.881,142.068401 501.667,148.265401 Z" id="Stroke-76" stroke="#2C2C2B" stroke-width="3.13" stroke-linejoin="round"></path>
                <path d="M95.212,24.2054011 C92.263,22.6904011 70.964,12.2254011 47.568,23.8294011 C25.672,34.6894011 18.497,56.6664011 17.369,60.3124011 C19.664,63.1964011 21.96,66.0794011 24.256,68.9634011 C32.378,62.6034011 41.234,56.1514011 50.84,49.7814011 C66.424,39.4484011 81.388,31.0514011 95.212,24.2054011" id="Fill-77" fill="#FFFFFE"></path>
                <path d="M95.212,24.2054011 C92.263,22.6904011 70.964,12.2254011 47.568,23.8294011 C25.672,34.6894011 18.497,56.6664011 17.369,60.3124011 C19.664,63.1964011 21.96,66.0794011 24.256,68.9634011 C32.378,62.6034011 41.234,56.1514011 50.84,49.7814011 C66.424,39.4484011 81.388,31.0514011 95.212,24.2054011 Z" id="Stroke-78" stroke="#2C2C2B" stroke-width="1.769" stroke-linejoin="round"></path>
                <path d="M62.292,19.0264011 C65.571,16.4164011 67.617,14.3984011 71.327,10.1014011 C73.74,7.30640112 75.773,4.56740112 77.477,2.01740112 M94.952,24.2634011 C99.521,25.9434011 104.09,27.6234011 108.659,29.3034011 M140.926,26.6194011 C137.368,25.7454011 132.128,24.8344011 125.811,25.1464011 C121.24,25.3714011 115.803,26.2284011 103.68,30.9754011 C97.019,33.5844011 93.236,35.4194011 77.151,43.1994011 C60.528,51.2394011 37.139,63.1984011 24.425,69.5844011" id="Stroke-79" stroke="#2C2C2B" stroke-width="1.043" stroke-linejoin="round"></path>
                <path d="M292.475,15.0224011 C240.607,13.9974011 190.092,14.0394011 141.018,14.9914011 C173.165,24.0994011 201.709,29.4704011 225.045,32.7624011 C256.574,37.2104011 281.258,38.2404011 300.737,38.7834011 C297.983,30.8634011 295.229,22.9424011 292.475,15.0224011 Z" id="Stroke-81" stroke="#2C2C2B" stroke-width="1.769" stroke-linejoin="round"></path>
                <path d="M292.457,208.756881 C240.589,207.731881 190.074,207.773881 141,208.725881 C173.147,217.833881 201.691,223.204881 225.027,226.496881 C256.556,230.944881 281.24,231.974881 300.719,232.517881 C297.965,224.597881 295.211,216.676881 292.457,208.756881 Z" id="Stroke-81-Copy" stroke="#2C2C2B" stroke-width="1.769" stroke-linejoin="round" transform="translate(220.859500, 220.258940) scale(1, -1) translate(-220.859500, -220.258940) "></path>
                <path d="M315.955,15.5554011 C315.815,15.5514011 315.676,15.5494011 315.535,15.5454011 C315.978,23.4054011 316.422,31.2654011 316.865,39.1254011 C329.347,39.2254011 340.245,38.8134011 358.555,38.1224011 C377.151,37.4194011 385.591,36.6624011 395.889,33.8904011 C409.81,30.1434011 420.652,24.4564011 427.821,20.0684011 C391.321,18.0664011 354.023,16.5394011 315.955,15.5554011 Z" id="Stroke-83" stroke="#2C2C2B" stroke-width="1.769" stroke-linejoin="round"></path>
                <path d="M315.937,209.289881 C315.797,209.285881 315.658,209.283881 315.517,209.279881 C315.96,217.139881 316.404,224.999881 316.847,232.859881 C329.329,232.959881 340.227,232.547881 358.537,231.856881 C377.133,231.153881 385.573,230.396881 395.871,227.624881 C409.792,223.877881 420.634,218.190881 427.803,213.802881 C391.303,211.800881 354.005,210.273881 315.937,209.289881 Z" id="Stroke-83-Copy" stroke="#2C2C2B" stroke-width="1.769" stroke-linejoin="round" transform="translate(371.660000, 221.077317) scale(1, -1) translate(-371.660000, -221.077317) "></path>
                <path d="M164.26,21.1054011 L168.469,18.4254011" id="Fill-87" fill="#A3A29C"></path>
                <path d="M434.305,123.499401 L434.878,51.2074011 C434.92,45.8934011 438.037,41.1494011 442.672,39.3424011 L444.106,38.7834011 C445.705,40.0584011 448.087,42.2134011 450.314,45.4564011 C454.026,50.8634011 455.254,56.3054011 456.444,61.8174011 C457.759,67.9054011 458.091,72.6794011 458.174,73.9464011 C459.339,91.7224011 459.575,119.384401 459.607,123.499401" id="Stroke-88" stroke="#2C2C2B" stroke-width="1.769" stroke-linejoin="round"></path>
                <path d="M225.833,43.0114011 C233.962,44.2004011 246.537,45.8624011 261.971,47.1484011 C290.574,49.5324011 311.994,49.2054011 319.863,49.1234011 C342.491,48.8884011 378.305,49.3774011 434.866,52.7904011 L433.746,194.092401 C302.387665,197.793068 232.658332,201.052734 224.558,203.871401 C223.734229,200.49916 217.191593,170.81221 218.033814,114.679064 C218.174253,105.318965 218.44658,90.8306188 220.8595,71.7029518 C221.58672,65.938143 223.244553,56.3742928 225.833,43.0114011 Z" id="elsa2f" stroke="#2C2C2B" stroke-width="1.769" fill="#FFFFFF" stroke-linejoin="round"></path>
                <path d="M470.738,35.5834011 L456.867,12.1714011 C459.26,12.3534011 462.582,12.8164011 466.387,14.0504011 C467.225,14.3224011 471.453,15.6944011 474.704,17.8114011 C482.099,22.6274011 485.07,31.7054011 486.108,35.5834011 C484.578,32.5414011 481.244,31.5834011 479.106,32.8564011 C476.727,34.2734011 475.752,38.4994011 477.999,41.5684011 C475.578,39.5734011 473.158,37.5784011 470.738,35.5834011" id="Fill-89" fill="#A3A29C"></path>
                <path d="M470.738,35.5834011 L456.867,12.1714011 C459.26,12.3534011 462.582,12.8164011 466.387,14.0504011 C467.225,14.3224011 471.453,15.6944011 474.704,17.8114011 C482.099,22.6274011 485.07,31.7054011 486.108,35.5834011 C484.578,32.5414011 481.244,31.5834011 479.106,32.8564011 C476.727,34.2734011 475.752,38.4994011 477.999,41.5684011 C475.578,39.5734011 473.158,37.5784011 470.738,35.5834011 Z" id="Stroke-90" stroke="#2C2C2B" stroke-width="1.769" stroke-linejoin="round"></path>
                <path d="M220.789,65.2024011 C222.245,57.3264011 223.964,49.9224011 225.833,43.0114011 C199.506,37.6514011 173.178,32.2924011 146.85,26.9324011 C135.758,24.6744011 124.872,32.0114011 121.757,43.7914011 C119.972,50.5434011 118.297,57.6854011 116.799,65.2024011 C112.467,86.9324011 111.888,159.950401 115.875,181.680401 C117.255,189.197401 118.817,196.339401 120.495,203.091401 C123.422,214.871401 134.192,222.208401 145.32,219.950401 C171.733,214.590401 198.145,209.231401 224.558,203.871401 C222.798,196.960401 221.197,189.556401 219.865,181.680401 C216.196,159.985401 216.775,86.8974011 220.789,65.2024011" id="Fill-98" fill="#A3A29C"></path>
                <path d="M220.789,65.2024011 C222.245,57.3264011 223.964,49.9224011 225.833,43.0114011 C199.506,37.6514011 173.178,32.2924011 146.85,26.9324011 C135.758,24.6744011 124.872,32.0114011 121.757,43.7914011 C119.972,50.5434011 118.297,57.6854011 116.799,65.2024011 C112.467,86.9324011 111.888,159.950401 115.875,181.680401 C117.255,189.197401 118.817,196.339401 120.495,203.091401 C123.422,214.871401 134.192,222.208401 145.32,219.950401 C171.733,214.590401 198.145,209.231401 224.558,203.871401 C222.798,196.960401 221.197,189.556401 219.865,181.680401 C216.196,159.985401 216.775,86.8974011 220.789,65.2024011 Z" id="Stroke-99" stroke="#2C2C2B" stroke-width="1.769" stroke-linejoin="round"></path>
                <path d="M93.639,222.677401 C90.666,224.192401 69.201,234.657401 45.989,223.053401 C24.265,212.193401 17.438,190.216401 16.368,186.570401 C18.709,183.686401 21.051,180.803401 23.392,177.919401 C31.414,184.279401 40.167,190.731401 49.672,197.101401 C65.092,207.434401 79.923,215.831401 93.639,222.677401" id="Fill-100" fill="#FFFFFE"></path>
                <path d="M93.639,222.677401 C90.666,224.192401 69.201,234.657401 45.989,223.053401 C24.265,212.193401 17.438,190.216401 16.368,186.570401 C18.709,183.686401 21.051,180.803401 23.392,177.919401 C31.414,184.279401 40.167,190.731401 49.672,197.101401 C65.092,207.434401 79.923,215.831401 93.639,222.677401 Z" id="Stroke-101" stroke="#2C2C2B" stroke-width="1.769" stroke-linejoin="round"></path>
                <path d="M21.409,88.0514011 C21.977,83.3164011 22.731,78.2794011 22.731,78.2794011 C23.208,75.0974011 23.718,71.9914011 24.256,68.9634011 C21.96,66.0794011 19.665,63.1964011 17.369,60.3124011 C16.224,64.6074011 14.731,70.7334011 13.401,78.1784011 C10.256,95.7804011 10.084,109.205401 9.967,123.308401 C9.849,137.468401 9.799,150.989401 12.684,168.704401 C13.894,176.138401 15.288,182.262401 16.368,186.570401 C18.709,183.686401 21.051,180.803401 23.392,177.919401 C22.587,173.111401 21.622,166.595401 20.848,158.831401 C19.337,143.668401 19.389,132.129401 19.456,123.167401 C19.582,106.310401 20.747,93.5764011 21.409,88.0514011" id="Fill-102" fill="#A3A29C"></path>
                <path d="M21.409,88.0514011 C21.977,83.3164011 22.731,78.2794011 22.731,78.2794011 C23.208,75.0974011 23.718,71.9914011 24.256,68.9634011 C21.96,66.0794011 19.665,63.1964011 17.369,60.3124011 C16.224,64.6074011 14.731,70.7334011 13.401,78.1784011 C10.256,95.7804011 10.084,109.205401 9.967,123.308401 C9.849,137.468401 9.799,150.989401 12.684,168.704401 C13.894,176.138401 15.288,182.262401 16.368,186.570401 C18.709,183.686401 21.051,180.803401 23.392,177.919401 C22.587,173.111401 21.622,166.595401 20.848,158.831401 C19.337,143.668401 19.389,132.129401 19.456,123.167401 C19.582,106.310401 20.747,93.5764011 21.409,88.0514011 Z" id="Stroke-103" stroke="#2C2C2B" stroke-width="1.769" stroke-linejoin="round"></path>
                <path d="M61.003,228.171401 C56.046,227.808401 48.253,225.427401 39.92,220.890401 C20.443,210.286401 13.183,189.913401 11.254,184.501401 C7.065,172.744401 6.653,162.251401 5.853,141.906401 C5.555,134.321401 5.728,112.561401 6.146,104.976401 C7.268,84.6314011 7.847,74.1384011 12.223,62.3814011 C14.237,56.9694011 21.819,36.5964011 41.465,25.9924011 C49.87,21.4554011 57.698,19.3894011 62.661,19.0264011 M59.763,227.649401 C63.001,230.259401 65.888,232.484401 69.53,236.781401 C71.899,239.576401 73.889,242.316401 75.552,244.866401 M93.639,222.677401 C97.474,221.595401 103.598,219.555401 106.817,217.830401 M139.391,220.263401 C135.819,221.137401 130.565,222.048401 124.253,221.736401 C119.082,221.481401 113.691,220.429401 102.214,215.907401 C95.594,213.298401 91.841,211.463401 75.879,203.683401 C61.945,196.892401 34.009,182.690401 23.747,177.153401" id="Stroke-104" stroke="#2C2C2B" stroke-width="1.043" stroke-linejoin="round"></path>
                <path d="M162.638,225.777401 L166.804,228.457401" id="Fill-112" fill="#A3A29C"></path>
                <path d="M434.306,123.383401 L433.733,195.675401 C433.691,200.989401 436.732,205.733401 441.339,207.540401 L442.764,208.099401 C444.383,206.824401 446.8,204.669401 449.077,201.426401 C452.876,196.019401 454.189,190.577401 455.467,185.065401 C456.879,178.977401 457.286,174.203401 457.389,172.936401 C458.836,155.161401 459.511,127.499401 459.608,123.383401" id="Stroke-113" stroke="#2C2C2B" stroke-width="1.769" stroke-linejoin="round"></path>
                <path d="M180.358,240.636401 C225.042,239.359401 261.075,238.970401 285.666,238.850401 C299.808,238.781401 380.05,238.459401 405.49,237.721401 C416.451,237.403401 427.119,236.722401 438.537,236.781401 C439.475,236.786401 441.967,236.804401 445.321,236.593401 C451.65,236.195401 456.805,235.872401 462.628,233.767401 C466.177,232.483401 473.065,230.885401 477.456,224.260401 C479.469,221.223401 481.575,217.684401 483.586,213.650401 C495.667,189.419401 495.831,160.618401 495.831,160.618401 C496.803,149.644401 496.892,141.782401 497.071,126.058401 C497.272,108.437401 497.378,99.1744011 496.421,86.2644011 C496.421,86.2644011 496.762,57.5644011 485.016,33.2324011 C483.069,29.1984011 481.02,25.6604011 479.054,22.6224011 C474.768,15.9974011 467.906,14.3994011 464.377,13.1164011 C458.588,11.0114011 453.438,10.6874011 447.115,10.2894011 C443.764,10.0784011 441.272,10.0964011 440.334,10.1014011 C428.915,10.1604011 418.258,9.47940112 407.301,9.16140112 C381.873,8.42340112 301.637,8.10240112 287.496,8.03240112 C262.907,7.91240112 226.88,7.52340112 182.216,6.24640112 M224.558,203.871401 C232.706,202.683401 245.307,201.020401 260.761,199.734401 C289.402,197.350401 310.817,197.677401 318.684,197.759401 C341.309,197.995401 377.131,197.505401 433.746,194.092401" id="Stroke-115" stroke="#2C2C2B" stroke-width="1.769" stroke-linejoin="round"></path>
                <path d="M469.345,211.299401 L455.103,234.711401 C457.498,234.529401 460.828,234.067401 464.653,232.832401 C465.495,232.560401 469.745,231.188401 473.03,229.071401 C480.501,224.256401 483.616,215.177401 484.715,211.299401 C483.137,214.341401 479.788,215.299401 477.67,214.026401 C475.313,212.610401 474.405,208.383401 476.701,205.314401 C474.249,207.309401 471.797,209.304401 469.345,211.299401" id="Fill-116" fill="#A3A29C"></path>
                <path d="M469.345,211.299401 L455.103,234.711401 C457.498,234.529401 460.828,234.067401 464.653,232.832401 C465.495,232.560401 469.745,231.188401 473.03,229.071401 C480.501,224.256401 483.616,215.177401 484.715,211.299401 C483.137,214.341401 479.788,215.299401 477.67,214.026401 C475.313,212.610401 474.405,208.383401 476.701,205.314401 C474.249,207.309401 471.797,209.304401 469.345,211.299401 Z" id="Stroke-117" stroke="#2C2C2B" stroke-width="1.769" stroke-linejoin="round"></path>
            </g>
        </g>
    </g>
</svg>