<?xml version="1.0" encoding="UTF-8"?>
<svg width="258px" height="228px" viewBox="0 0 258 228" version="1.1" xmlns="http://www.w3.org/2000/svg" xmlns:xlink="http://www.w3.org/1999/xlink">
    <!-- Generator: Sketch 53.2 (72643) - https://sketchapp.com -->
    <title>front view</title>
    <desc>Created with Sketch.</desc>
    <g id="Page-1" stroke="none" stroke-width="1" fill="none" fill-rule="evenodd">
        <g id="hatchback" transform="translate(-902.000000, -44.000000)">
            <g id="front-view" transform="translate(903.000000, 46.000000)">
                <polygon id="Fill-231" fill="#777671" points="29.861 209.581415 225.132 209.581415 225.132 195.324415 29.861 195.324415"></polygon>
                <polygon id="Stroke-232" stroke="#2C2C2B" stroke-width="1.656" stroke-linejoin="round" points="29.861 209.581415 225.132 209.581415 225.132 195.324415 29.861 195.324415"></polygon>
                <polygon id="Fill-233" fill="#777671" points="61.836 210.673415 193.152 210.673415 193.152 194.232415 61.836 194.232415"></polygon>
                <polygon id="Stroke-234" stroke="#2C2C2B" stroke-width="1.656" stroke-linejoin="round" points="61.836 210.673415 193.152 210.673415 193.152 194.232415 61.836 194.232415"></polygon>
                <path d="M37.039,196.164415 L37.039,215.734415 C37.039,220.088415 33.672,223.618415 29.519,223.618415 L14.001,223.618415 C9.848,223.618415 6.481,220.088415 6.481,215.734415 L6.481,142.117415 L37.039,196.164415" id="Fill-235" fill="#A3A29C"></path>
                <path d="M37.039,196.164415 L37.039,215.734415 C37.039,220.088415 33.672,223.618415 29.519,223.618415 L14.001,223.618415 C9.848,223.618415 6.481,220.088415 6.481,215.734415 L6.481,142.117415 L37.039,196.164415 Z" id="Stroke-236" stroke="#2C2C2B" stroke-width="2.93" stroke-linejoin="round"></path>
                <path d="M218.582,196.164415 L218.582,215.734415 C218.582,220.088415 221.952,223.618415 226.102,223.618415 L241.622,223.618415 C245.782,223.618415 249.142,220.088415 249.142,215.734415 L249.142,142.117415 L218.582,196.164415" id="Fill-237" fill="#A3A29C"></path>
                <path d="M218.582,196.164415 L218.582,215.734415 C218.582,220.088415 221.952,223.618415 226.102,223.618415 L241.622,223.618415 C245.782,223.618415 249.142,220.088415 249.142,215.734415 L249.142,142.117415 L218.582,196.164415 Z" id="Stroke-238" stroke="#2C2C2B" stroke-width="2.93" stroke-linejoin="round"></path>
                <path d="M201.262,203.037415 L205.712,205.704415 C218.422,204.815415 231.142,203.926415 243.862,203.037415 C244.522,202.884415 245.552,202.540415 246.562,201.704415 C248.632,199.988415 249.022,197.505415 249.112,196.871415 C250.342,180.543415 250.862,162.385415 250.062,142.704415 C249.562,130.439415 248.612,118.860415 247.362,108.037415 C241.552,99.0654146 237.702,91.4004146 235.352,86.3714146 C230.152,75.1894146 228.112,67.7424146 216.832,37.5374146 C216.832,37.5374146 215.172,33.0814146 208.412,20.2044146 C206.232,16.0574146 203.832,11.7184146 199.112,8.12141456 C197.102,6.58641456 195.232,5.62141456 193.942,5.03741456 C186.442,3.78641456 178.532,2.70641456 170.262,1.87141456 C155.062,0.336414557 140.842,-0.147585443 127.813,0.0374145566 C114.784,-0.147585443 100.568,0.336414557 85.367,1.87141456 C77.092,2.70641456 69.188,3.78641456 61.681,5.03741456 C60.392,5.62141456 58.528,6.58641456 56.514,8.12141456 C51.796,11.7194146 49.392,16.0584146 47.215,20.2044146 C40.452,33.0814146 38.789,37.5374146 38.789,37.5374146 C27.518,67.7424146 25.475,75.1894146 20.269,86.3714146 C17.927,91.4004146 14.07,99.0654146 8.267,108.037415 C7.015,118.860415 6.061,130.439415 5.564,142.704415 C4.767,162.385415 5.281,180.543415 6.518,196.871415 C6.599,197.505415 6.989,199.988415 9.062,201.704415 C10.072,202.540415 11.107,202.884415 11.764,203.037415 C24.482,203.926415 37.199,204.815415 49.917,205.704415 L54.368,203.037415 C78.85,203.371415 103.331,203.704415 127.813,204.037415 C152.292,203.704415 176.772,203.371415 201.262,203.037415 Z" id="Fill-239" fill="#F8F7F6"></path>
                <path d="M127.813,204.037415 C152.292,203.704415 176.772,203.371415 201.262,203.037415 L205.712,205.704415 C218.422,204.815415 231.142,203.926415 243.862,203.037415 C244.522,202.884415 245.552,202.540415 246.562,201.704415 C248.632,199.988415 249.022,197.505415 249.112,196.871415 C250.342,180.543415 250.862,162.385415 250.062,142.704415 C249.562,130.439415 248.612,118.860415 247.362,108.037415 C241.552,99.0654146 237.702,91.4004146 235.352,86.3714146 C230.152,75.1894146 228.112,67.7424146 216.832,37.5374146 C216.832,37.5374146 215.172,33.0814146 208.412,20.2044146 C206.232,16.0574146 203.832,11.7184146 199.112,8.12141456 C197.102,6.58641456 195.232,5.62141456 193.942,5.03741456 C186.442,3.78641456 178.532,2.70641456 170.262,1.87141456 C155.062,0.336414557 140.842,-0.147585443 127.813,0.0374145566 C114.784,-0.147585443 100.568,0.336414557 85.367,1.87141456 C77.092,2.70641456 69.188,3.78641456 61.681,5.03741456 C60.392,5.62141456 58.528,6.58641456 56.514,8.12141456 C51.796,11.7194146 49.392,16.0584146 47.215,20.2044146 C40.452,33.0814146 38.789,37.5374146 38.789,37.5374146 C27.518,67.7424146 25.475,75.1894146 20.269,86.3714146 C17.927,91.4004146 14.07,99.0654146 8.267,108.037415 C7.015,118.860415 6.061,130.439415 5.564,142.704415 C4.767,162.385415 5.281,180.543415 6.518,196.871415 C6.599,197.505415 6.989,199.988415 9.062,201.704415 C10.072,202.540415 11.107,202.884415 11.764,203.037415 C24.482,203.926415 37.199,204.815415 49.917,205.704415 L54.368,203.037415 C78.85,203.371415 103.331,203.704415 127.813,204.037415 Z" id="Stroke-240" stroke="#2C2C2B" stroke-width="2.93" stroke-linejoin="round"></path>
                <path d="M8.00083583,108.704386 L19.2959718,112 C23.4805975,119.77161 33.1013,125.231743 48.1580793,128.380399 C50.6309078,128.897514 52.9580204,123.131496 56.7999956,121.676035 C64.5765935,121.676035 112.597262,121.676035 200.862,121.676035 C202.981615,128.609259 208.358281,130.039496 216.992,125.966746 C225.625719,121.893996 232.072049,117.238414 236.33099,112 L247.93545,112 C251.981084,163.215947 251.981084,192.738909 247.93545,200.568885 C242.106483,202.692741 228.032,204.404584 205.712,205.704415 L200.862,202.452915 L54.761,202.452915 L49.917,205.704415 L9.69203235,202.452915 C5.81951845,198.755112 4.31621792,181.878945 5.18213075,151.824415 C6.04804358,121.769884 6.98761194,107.396541 8.00083583,108.704386 Z" id="Eksedam" stroke="#2C2C2B" fill="#FFFFFF"></path>
                <path d="M26.866,77.3244146 C28.174,79.6364146 30.353,83.0404146 33.702,86.4914146 C37.03,89.9204146 39.984,91.8194146 50.235,97.9914146 C55.239,101.003415 59.516,103.550415 62.794,105.491415 C61.628,108.204415 60.359,110.986415 58.979,113.824415 C57.213,117.452415 55.403,120.882415 53.58,124.118415 C51.608,127.619415 47.575,129.215415 43.89,127.949415 C41.257,127.044415 38.295,125.866415 35.133,124.324415 C27.346,120.527415 23.453,118.628415 21.143,114.157415 C17.994,108.060415 19.597,100.821415 20.666,95.9914146 C21.331,92.9884146 22.436,89.7894146 24.323,84.3244146 C25.342,81.3724146 26.243,78.9584146 26.866,77.3244146 Z" id="left-light" stroke="#2C2C2B" stroke-width="1.656" fill="#FFFFFF" stroke-linejoin="round"></path>
                <path d="M127.813,195.576337 C115.95252,195.718804 103.703631,195.64996 91.091,195.324415 C80.349,195.047415 69.879,194.599415 59.695,194.006415 C55.15,193.742415 50.89,191.552415 47.978,187.885415 C47.962,187.864415 47.946,187.844415 47.93,187.824415 C46.764,186.354415 45.647,184.896415 44.578,183.455415 C42.225,180.285415 41.473,176.114415 42.578,172.268415 C44.263,166.407415 47.203,159.173415 52.461,152.074415 C52.492,152.032415 52.523,151.990415 52.554,151.948415 C57.227,145.672415 64.349,141.928415 71.934,141.537415 C82.086,141.014415 92.489,140.643415 103.133,140.449415 C111.512,140.296415 119.74,140.259415 127.813,140.324415 C135.885,140.259415 144.114,140.296415 152.492,140.449415 C163.132,140.643415 173.542,141.014415 183.692,141.537415 C191.272,141.928415 198.402,145.672415 203.072,151.948415 C203.102,151.990415 203.132,152.032415 203.162,152.074415 C208.422,159.173415 211.362,166.407415 213.052,172.268415 C214.152,176.114415 213.402,180.285415 211.052,183.455415 C209.982,184.896415 208.862,186.354415 207.692,187.824415 C207.682,187.844415 207.662,187.864415 207.652,187.885415 C204.732,191.552415 200.472,193.742415 195.932,194.006415 C185.742,194.599415 175.272,195.047415 164.532,195.324415 C151.918374,195.64996 139.673445,195.718804 127.813,195.576337 Z" id="Combined-Shape" fill="#A3A29C"></path>
                <path d="M127.813,140.324415 C119.74,140.259415 111.512,140.296415 103.133,140.449415 C92.489,140.643415 82.086,141.014415 71.934,141.537415 C64.349,141.928415 57.227,145.672415 52.554,151.948415 C52.523,151.990415 52.492,152.032415 52.461,152.074415 C47.203,159.173415 44.263,166.407415 42.578,172.268415 C41.473,176.114415 42.225,180.285415 44.578,183.455415 C45.647,184.896415 46.764,186.354415 47.93,187.824415 C47.946,187.844415 47.962,187.864415 47.978,187.885415 C50.89,191.552415 55.15,193.742415 59.695,194.006415 C69.879,194.599415 80.349,195.047415 91.091,195.324415 C103.76,195.651415 116.062,195.719415 127.972,195.574415" id="Stroke-243" stroke="#2C2C2B" stroke-width="1.656" stroke-linejoin="round"></path>
                <path d="M16.734,140.778415 C15.026,140.417415 13.412,141.750415 13.327,143.574415 C13.024,150.138415 13.084,157.561415 13.831,165.657415 C14.307,170.817415 15.009,175.687415 15.859,180.242415 C16.84,185.502415 24.023,185.462415 24.928,180.186415 C26.587,170.514415 28.246,160.842415 29.904,151.171415 C30.203,149.429415 29.614,147.635415 28.315,146.507415 C27.725,145.995415 27.084,145.486415 26.389,144.991415 C22.98,142.561415 19.53,141.370415 16.734,140.778415" id="shabora-R" fill="#A3A29C"></path>
                <path d="M16.734,140.778415 C15.026,140.417415 13.412,141.750415 13.327,143.574415 C13.024,150.138415 13.084,157.561415 13.831,165.657415 C14.307,170.817415 15.009,175.687415 15.859,180.242415 C16.84,185.502415 24.023,185.462415 24.928,180.186415 C26.587,170.514415 28.246,160.842415 29.904,151.171415 C30.203,149.429415 29.614,147.635415 28.315,146.507415 C27.725,145.995415 27.084,145.486415 26.389,144.991415 C22.98,142.561415 19.53,141.370415 16.734,140.778415 Z" id="Stroke-245" stroke="#2C2C2B" stroke-width="1.656" stroke-linejoin="round"></path>
                <path d="M27.086,151.824415 C27.086,148.787415 24.701,146.324415 21.76,146.324415 C18.819,146.324415 16.435,148.787415 16.435,151.824415 C16.435,154.862415 18.819,157.324415 21.76,157.324415 C24.701,157.324415 27.086,154.862415 27.086,151.824415" id="Fill-246" fill="#FFFFFE"></path>
                <path d="M27.086,151.824415 C27.086,148.787415 24.701,146.324415 21.76,146.324415 C18.819,146.324415 16.435,148.787415 16.435,151.824415 C16.435,154.862415 18.819,157.324415 21.76,157.324415 C24.701,157.324415 27.086,154.862415 27.086,151.824415 Z" id="Stroke-247" stroke="#2C2C2B" stroke-width="1.656" stroke-linejoin="round"></path>
                <path d="M127.8125,67.6602625 C111.130422,67.9586197 93.6744665,67.8322769 75.511,67.1574146 C60.973,66.6184146 46.92,65.7624146 33.384,64.6584146 C36.491,54.2064146 40.85,42.3514146 47.056,29.8244146 C50.322,23.2294146 53.712,17.2334146 57.071,11.8244146 C69.152,11.0414146 81.556,10.4214146 94.27,9.99141456 C105.696,9.60441456 116.881,9.38941456 127.813,9.32441456 C138.744,9.38941456 149.932,9.60441456 161.352,9.99141456 C174.072,10.4204146 186.472,11.0414146 198.552,11.8244146 C201.912,17.2334146 205.302,23.2294146 208.572,29.8244146 C214.772,42.3514146 219.132,54.2064146 222.242,64.6574146 C208.702,65.7624146 194.652,66.6184146 180.112,67.1574146 C161.94953,67.8322769 144.494571,67.9586197 127.8125,67.6602625 Z" id="Front-glass" stroke="#2C2C2B" stroke-width="2" fill="#A3A29C"></path>
                <path d="M23.131,69.3244146 C23.418,67.1494146 23.62,64.6274146 23.607,61.8244146 C23.601,60.4544146 23.544,59.1524146 23.452,57.9274146 C23.319,56.1554146 21.889,54.7904146 20.194,54.8124146 C18.4,54.8354146 16.515,54.9174146 14.546,55.0744146 C12.193,55.2624146 9.967,55.5394146 7.88,55.8724146 C5.318,56.2824146 3.169,58.0724146 2.187,60.5854146 C2.093,60.8274146 2,61.0734146 1.908,61.3244146 C0.807,64.3414146 0.267,67.1004146 0,69.3244146 L23.131,69.3244146" id="RIght-mirror" fill="#A3A29C"></path>
                <path d="M23.131,69.3244146 C23.418,67.1494146 23.62,64.6274146 23.607,61.8244146 C23.601,60.4544146 23.544,59.1524146 23.452,57.9274146 C23.319,56.1554146 21.889,54.7904146 20.194,54.8124146 C18.4,54.8354146 16.515,54.9174146 14.546,55.0744146 C12.193,55.2624146 9.967,55.5394146 7.88,55.8724146 C5.318,56.2824146 3.169,58.0724146 2.187,60.5854146 C2.093,60.8274146 2,61.0734146 1.908,61.3244146 C0.807,64.3414146 0.267,67.1004146 0,69.3244146 L23.131,69.3244146 Z" id="Stroke-251" stroke="#2C2C2B" stroke-width="1.656" stroke-linejoin="round"></path>
                <polyline id="Fill-252" fill="#FFFFFE" points="0 69.3244146 24.363 77.3244146 27.516 69.3244146 0 69.3244146"></polyline>
                <path d="M228.762,77.3244146 C227.452,79.6364146 225.272,83.0404146 221.922,86.4914146 C218.592,89.9204146 215.642,91.8194146 205.392,97.9914146 C200.382,101.003415 196.112,103.550415 192.832,105.491415 C194.002,108.204415 195.262,110.986415 196.642,113.824415 C198.412,117.452415 200.222,120.882415 202.042,124.118415 C204.022,127.619415 208.052,129.215415 211.732,127.949415 C214.372,127.044415 217.332,125.866415 220.492,124.324415 C228.282,120.526415 232.172,118.628415 234.482,114.157415 C237.632,108.060415 236.032,100.821415 234.962,95.9914146 C234.292,92.9884146 233.192,89.7894146 231.302,84.3244146 C230.282,81.3724146 229.382,78.9584146 228.762,77.3244146 Z" id="right-light" stroke="#2C2C2B" stroke-width="1.656" fill="#FFFFFF" stroke-linejoin="round"></path>
                <path d="M200.862,121.991415 C198.182,116.491415 195.512,110.991415 192.832,105.491415 C190.862,105.655415 187.942,105.893415 184.402,106.157415 C163.742,107.705415 148.484,108.199415 144.346,108.324415 C140.167,108.451415 134.524,108.589415 127.813,108.656415 C121.101,108.589415 115.459,108.451415 111.28,108.324415 C107.142,108.199415 91.887,107.705415 71.219,106.157415 C67.686,105.893415 64.767,105.655415 62.794,105.491415 C60.116,110.991415 57.438,116.491415 54.761,121.991415 C63.952,122.394415 73.254,122.729415 82.665,122.991415 C97.937,123.415415 112.936,123.629415 127.654,123.656415 L127.654,123.657415 C127.707,123.657415 127.76,123.657415 127.813,123.657415 C127.865,123.657415 127.919,123.657415 127.971,123.657415 L127.971,123.656415 C142.69,123.629415 157.692,123.415415 172.962,122.991415 C182.372,122.729415 191.672,122.394415 200.862,121.991415" id="Fill-254" fill="#A3A29C"></path>
                <path d="M200.862,121.991415 C198.182,116.491415 195.512,110.991415 192.832,105.491415 C190.862,105.655415 187.942,105.893415 184.402,106.157415 C163.742,107.705415 148.484,108.199415 144.346,108.324415 C140.167,108.451415 134.524,108.589415 127.813,108.656415 C121.101,108.589415 115.459,108.451415 111.28,108.324415 C107.142,108.199415 91.887,107.705415 71.219,106.157415 C67.686,105.893415 64.767,105.655415 62.794,105.491415 C60.116,110.991415 57.438,116.491415 54.761,121.991415 C63.952,122.394415 73.254,122.729415 82.665,122.991415 C97.937,123.415415 112.936,123.629415 127.654,123.656415 L127.654,123.657415 C127.707,123.657415 127.76,123.657415 127.813,123.657415 C127.865,123.657415 127.919,123.657415 127.971,123.657415 L127.971,123.656415 C142.69,123.629415 157.692,123.415415 172.962,122.991415 C182.372,122.729415 191.672,122.394415 200.862,121.991415 Z" id="Stroke-255" stroke="#2C2C2B" stroke-width="1.656" stroke-linejoin="round"></path>
                <path d="M127.813,140.324415 C135.885,140.259415 144.114,140.296415 152.492,140.449415 C163.132,140.643415 173.542,141.014415 183.692,141.537415 C191.272,141.928415 198.402,145.672415 203.072,151.948415 C203.102,151.990415 203.132,152.032415 203.162,152.074415 C208.422,159.173415 211.362,166.407415 213.052,172.268415 C214.152,176.114415 213.402,180.285415 211.052,183.455415 C209.982,184.896415 208.862,186.354415 207.692,187.824415 C207.682,187.844415 207.662,187.864415 207.652,187.885415 C204.732,191.552415 200.472,193.742415 195.932,194.006415 C185.742,194.599415 175.272,195.047415 164.532,195.324415 C151.862,195.651415 139.564,195.719415 127.654,195.574415" id="Stroke-257" stroke="#2C2C2B" stroke-width="1.656" stroke-linejoin="round"></path>
                <path d="M238.892,140.778415 C240.602,140.417415 242.212,141.750415 242.302,143.574415 C242.602,150.138415 242.542,157.561415 241.792,165.657415 C241.322,170.817415 240.612,175.687415 239.762,180.241415 C238.782,185.502415 231.602,185.461415 230.702,180.186415 C229.042,170.514415 227.382,160.842415 225.722,151.171415 C225.422,149.429415 226.012,147.635415 227.312,146.507415 C227.902,145.995415 228.542,145.486415 229.232,144.991415 C232.642,142.561415 236.092,141.370415 238.892,140.778415" id="shabora-L" fill="#A3A29C"></path>
                <path d="M238.892,140.778415 C240.602,140.417415 242.212,141.750415 242.302,143.574415 C242.602,150.138415 242.542,157.561415 241.792,165.657415 C241.322,170.817415 240.612,175.687415 239.762,180.241415 C238.782,185.502415 231.602,185.461415 230.702,180.186415 C229.042,170.514415 227.382,160.842415 225.722,151.171415 C225.422,149.429415 226.012,147.635415 227.312,146.507415 C227.902,145.995415 228.542,145.486415 229.232,144.991415 C232.642,142.561415 236.092,141.370415 238.892,140.778415 Z" id="Stroke-261" stroke="#2C2C2B" stroke-width="1.656" stroke-linejoin="round"></path>
                <path d="M228.542,151.824415 C228.542,148.786415 230.922,146.324415 233.862,146.324415 C236.802,146.324415 239.192,148.786415 239.192,151.824415 C239.192,154.862415 236.802,157.324415 233.862,157.324415 C230.922,157.324415 228.542,154.862415 228.542,151.824415" id="Fill-262" fill="#FFFFFE"></path>
                <path d="M228.542,151.824415 C228.542,148.786415 230.922,146.324415 233.862,146.324415 C236.802,146.324415 239.192,148.786415 239.192,151.824415 C239.192,154.862415 236.802,157.324415 233.862,157.324415 C230.922,157.324415 228.542,154.862415 228.542,151.824415 Z" id="Stroke-263" stroke="#2C2C2B" stroke-width="1.656" stroke-linejoin="round"></path>
                <path d="M232.492,69.3244146 C232.202,67.1494146 232.002,64.6274146 232.022,61.8244146 C232.022,60.4544146 232.082,59.1524146 232.172,57.9274146 C232.302,56.1554146 233.732,54.7904146 235.432,54.8124146 C237.222,54.8354146 239.112,54.9174146 241.082,55.0744146 C243.432,55.2624146 245.662,55.5384146 247.742,55.8724146 C250.312,56.2824146 252.452,58.0714146 253.442,60.5854146 C253.532,60.8274146 253.622,61.0734146 253.722,61.3244146 C254.822,64.3414146 255.362,67.1004146 255.622,69.3244146 L232.492,69.3244146" id="Left-mirror" fill="#A3A29C"></path>
                <path d="M232.492,69.3244146 C232.202,67.1494146 232.002,64.6274146 232.022,61.8244146 C232.022,60.4544146 232.082,59.1524146 232.172,57.9274146 C232.302,56.1554146 233.732,54.7904146 235.432,54.8124146 C237.222,54.8354146 239.112,54.9174146 241.082,55.0744146 C243.432,55.2624146 245.662,55.5384146 247.742,55.8724146 C250.312,56.2824146 252.452,58.0714146 253.442,60.5854146 C253.532,60.8274146 253.622,61.0734146 253.722,61.3244146 C254.822,64.3414146 255.362,67.1004146 255.622,69.3244146 L232.492,69.3244146 Z" id="Stroke-267" stroke="#2C2C2B" stroke-width="1.656" stroke-linejoin="round"></path>
                <polyline id="Fill-268" fill="#FFFFFE" points="255.622 69.3244146 231.262 77.3244146 228.112 69.3244146 255.622 69.3244146"></polyline>
                <path d="M255.622,69.3244146 L231.262,77.3244146 L228.112,69.3244146 L255.622,69.3244146 Z M27.068,77.3244146 L31.047,68.2124146 C33.634,67.2254146 36.22,66.2384146 38.807,65.2514146 L27.068,77.3244146 Z M228.732,77.3244146 L216.992,65.2514146 C219.582,66.2384146 222.172,67.2254146 224.762,68.2124146 L228.732,77.3244146 Z M0,69.3244146 L27.516,69.3244146 L24.363,77.3244146 L0,69.3244146 Z" id="Stroke-269" stroke="#2C2C2B" stroke-width="1.656" stroke-linejoin="round"></path>
                <path d="M38.807,65.2514146 C105.023707,69.2481715 164.418707,69.2481715 216.992,65.2514146 C216.992,65.2514146 220.842,69.2757479 228.542,77.3244146 C225.546776,85.0108713 213.750109,94.3998713 193.152,105.491415 C192.832,105.491415 125.588,112.720601 62.794,105.491415 C61.836,104.282091 34.8760282,92.5805457 27.086,77.3244146 C26.9393333,77.3244146 30.8463333,73.3000812 38.807,65.2514146 Z" id="Kapoot" stroke="#2C2C2B" fill="#F8F7F6"></path>
            </g>
        </g>
    </g>
</svg>