<?xml version="1.0" encoding="UTF-8"?>
<svg width="631px" height="283px" viewBox="0 0 631 283" version="1.1" xmlns="http://www.w3.org/2000/svg" xmlns:xlink="http://www.w3.org/1999/xlink">
    <!-- Generator: Sketch 53.2 (72643) - https://sketchapp.com -->
    <title>left view</title>
    <desc>Created with Sketch.</desc>
    <g id="Page-1" stroke="none" stroke-width="1" fill="none" fill-rule="evenodd">
        <g id="hatchback" transform="translate(-56.000000, -42.000000)">
            <g id="left-view" transform="translate(371.500000, 183.500000) rotate(-360.000000) translate(-371.500000, -183.500000) translate(58.000000, 44.000000)">
                <path d="M45.4041065,250 L55.2711986,241.416022 L158.800306,229.610363 L173.054587,231.515523 L173.054587,248.417642 L481.234168,244.332625 L481.862166,227.422911 L591.761677,229.610363 L607.994149,223.279664 C608.428723,187.029733 584.597485,157.25228 556.279835,151.893782 C521.143391,145.244079 480.014598,176.358308 478.408181,223.279664 C476.80302,228.941975 475.197859,234.60302 473.592698,240.265331 L180.110763,242.967999 C185.781578,210.187864 170.940748,177.595079 143.475918,161.809472 C113.534268,144.601008 74.3510098,150.677265 53.2540716,174.256936 C37.4863177,191.88061 28.7471086,222.716344 40.2746253,243.037623 C42.0242256,246.121323 43.940873,248.434098 45.4041065,250" id="Fill-125" fill="#A3A29C"></path>
                <path d="M45.4041065,250 L55.2711986,241.416022 L158.800306,229.610363 L173.054587,231.515523 L173.054587,248.417642 L481.234168,244.332625 L481.862166,227.422911 L591.761677,229.610363 L607.994149,223.279664 C608.428723,187.029733 584.597485,157.25228 556.279835,151.893782 C521.143391,145.244079 480.014598,176.358308 478.408181,223.279664 C476.80302,228.941975 475.197859,234.60302 473.592698,240.265331 L180.110763,242.967999 C185.781578,210.187864 170.940748,177.595079 143.475918,161.809472 C113.534268,144.601008 74.3510098,150.677265 53.2540716,174.256936 C37.4863177,191.88061 28.7471086,222.716344 40.2746253,243.037623 C42.0242256,246.121323 43.940873,248.434098 45.4041065,250 Z" id="Stroke-126" stroke="#2C2C2B" stroke-width="3" stroke-linejoin="round"></path>
                <path d="M221.824936,33.6202729 C253.345604,14.7444366 289.021577,3.88078102 325.718832,1.97353636 C363.235619,0.0249659834 391.24132,-1.47277834 443.944519,2.48948173 C473.831134,4.73609822 514.485703,8.86741807 562.789241,17.1075165 C566.746554,17.7825032 569.705141,21.1248775 569.876817,25.1334725 L569.881829,25.2386652 C569.979572,27.7557773 569.399383,29.7682147 568.941999,30.9791836 C576.451872,39.6463144 584.10836,48.9283219 591.811212,58.8427382 C597.403831,66.0434321 602.679414,73.1351763 607.650492,80.0829067 C609.975006,83.3338634 611.234379,87.2197335 611.234379,91.2145533 L611.234379,135.597126 C611.234379,138.441087 611.934866,141.241217 613.275691,143.749564 L621.887047,159.867847 C623.464709,162.82201 624.402034,166.075471 624.637618,169.415341 L626.975916,202.653744 C627.133808,204.884081 626.51352,207.113165 625.168935,208.898937 C623.628866,210.942682 621.721636,213.161748 619.379578,215.379562 C615.062623,219.465799 610.76697,222.129429 607.475056,223.83255 C608.342207,217.850339 609.052719,206.776298 603.92375,195.133715 C594.068059,172.758968 568.919443,162.537739 548.579001,162.364923 C522.530654,162.145771 505.365586,178.413078 501.587467,182.193755 C478.997697,204.791411 481.434991,234.643609 481.851023,238.860085 C378.990941,239.799306 276.132112,240.738527 173.273283,241.677748 C173.731921,238.415521 177.963665,204.072594 151.970455,180.00224 C148.628417,176.90782 125.595047,156.301312 94.3275065,162.783189 C65.7591601,168.70529 52.7143103,192.595314 50.7820184,196.282069 C38.405075,219.887822 45.0064456,242.56312 46.3961419,247 C32.9352604,245.450912 22.2224438,243.472286 15.6950065,240.11238 C9.63121893,236.991662 4.93457176,233.30115 1.45970447,230.018885 C-0.436247286,228.226852 -0.487624697,225.230111 1.31935642,223.34666 L5.35686901,219.136445 C3.34312515,209.749245 2.55867981,201.864798 2.22410009,196.282069 C1.39203666,182.414159 0.717864786,171.181076 6.29669969,159.339379 C9.61116921,152.302736 14.0070706,147.440076 17.0095163,144.56606 C16.8177908,142.192961 16.6711773,138.792982 16.948114,134.710501 C17.2413412,130.370048 17.6987255,128.312528 18.2977109,126.183627 C19.8327677,120.72738 33.1595667,110.856794 54.854618,101.733828 C63.2191111,98.2161323 71.0923859,94.9251021 82.8402694,90.9841311 C95.9615588,86.5835679 106.067871,84.003841 113.12412,82.218069 C124.138936,79.4317135 138.394287,76.2258394 155.311239,73.4520068 L221.824936,33.6202729 Z" id="Fill-127" fill="#FFFFFF"></path>
                <path d="M155.311239,73.4520068 L221.824936,33.6202729 C253.345604,14.7444366 289.021577,3.88078102 325.718832,1.97353636 C363.235619,0.0249659834 391.24132,-1.47277834 443.944519,2.48948173 C473.831134,4.73609822 514.485703,8.86741807 562.789241,17.1075165 C566.746554,17.7825032 569.705141,21.1248775 569.876817,25.1334725 L569.881829,25.2386652 C569.979572,27.7557773 569.399383,29.7682147 568.941999,30.9791836 C576.451872,39.6463144 584.10836,48.9283219 591.811212,58.8427382 C597.403831,66.0434321 602.679414,73.1351763 607.650492,80.0829067 C609.975006,83.3338634 611.234379,87.2197335 611.234379,91.2145533 L611.234379,135.597126 C611.234379,138.441087 611.934866,141.241217 613.275691,143.749564 L621.887047,159.867847 C623.464709,162.82201 624.402034,166.075471 624.637618,169.415341 L626.975916,202.653744 C627.133808,204.884081 626.51352,207.113165 625.168935,208.898937 C623.628866,210.942682 621.721636,213.161748 619.379578,215.379562 C615.062623,219.465799 610.76697,222.129429 607.475056,223.83255 C608.342207,217.850339 609.052719,206.776298 603.92375,195.133715 C594.068059,172.758968 568.919443,162.537739 548.579001,162.364923 C522.530654,162.145771 505.365586,178.413078 501.587467,182.193755 C478.997697,204.791411 481.434991,234.643609 481.851023,238.860085 C378.990941,239.799306 276.132112,240.738527 173.273283,241.677748 C173.731921,238.415521 177.963665,204.072594 151.970455,180.00224 C148.628417,176.90782 125.595047,156.301312 94.3275065,162.783189 C65.7591601,168.70529 52.7143103,192.595314 50.7820184,196.282069 C38.405075,219.887822 45.0064456,242.56312 46.3961419,247 C32.9352604,245.450912 22.2224438,243.472286 15.6950065,240.11238 C9.63121893,236.991662 4.93457176,233.30115 1.45970447,230.018885 C-0.436247286,228.226852 -0.487624697,225.230111 1.31935642,223.34666 L5.35686901,219.136445 C3.34312515,209.749245 2.55867981,201.864798 2.22410009,196.282069 C1.39203666,182.414159 0.717864786,171.181076 6.29669969,159.339379 C9.61116921,152.302736 14.0070706,147.440076 17.0095163,144.56606 C16.8177908,142.192961 16.6711773,138.792982 16.948114,134.710501 C17.2413412,130.370048 17.6987255,128.312528 18.2977109,126.183627 C19.8327677,120.72738 33.1595667,110.856794 54.854618,101.733828 C63.2191111,98.2161323 71.0923859,94.9251021 82.8402694,90.9841311 C95.9615588,86.5835679 106.067871,84.003841 113.12412,82.218069 C124.138936,79.4317135 138.394287,76.2258394 155.311239,73.4520068 Z" id="Stroke-128" stroke="#2C2C2B" stroke-width="3" stroke-linejoin="round"></path>
                <path d="M159.915804,104.170866 C161.418079,105.785777 163.393431,105.913567 167.5769,106.602629 C167.751788,106.631445 167.932967,106.661513 168.119178,106.692834 C175.93503,108.013328 183.888025,108.332802 191.78566,107.653763 C259.059615,101.876915 470.527994,82.7798657 494.210831,80.6725878 C497.050558,80.419514 499.858829,79.8970795 502.5979,79.1128013 C515.065267,75.5384471 527.532633,71.9640929 540,68.3909916 C535.621512,62.0466069 530.423945,55.2674865 524.272673,48.3455422 C518.003132,41.2920497 511.699619,35.1681649 505.645227,29.8761663 C498.599385,23.7184548 489.910351,19.7156292 480.633745,18.3700784 C446.369561,13.4000598 417.084021,12.0720487 394.6795,12.0131652 C358.322953,11.9166965 328.987085,12.0632789 292.137329,22.9755204 C269.486203,29.6832289 253.339901,37.690133 238.349871,45.2134408 C216.085009,56.3862731 188.101691,72.8511041 158.338039,97.0960751 C154.586128,100.151753 159.915804,104.170866 159.915804,104.170866 Z" id="Stroke-129" stroke="#2C2C2B" stroke-linejoin="round"></path>
                <path d="M22.6496692,123.214578 C20.5244522,124.305265 19.0719477,126.373503 18.7292927,128.755727 C18.3614425,131.31846 18.0956329,134.150688 18.021307,137.216815 C17.8701357,143.413902 18.5441078,148.773269 19.3856282,153 C29.1424777,149.147001 39.2407224,144.889762 49.6198939,140.182518 C54.2948672,138.062162 58.8640206,135.924008 63.3248346,133.776956 C71.7047652,129.742176 79.5694536,124.704421 86.669467,118.668777 C86.7072598,118.635726 86.7450526,118.603946 86.7828455,118.572166 C92.9430771,113.332291 98.67499,108.11784 104,103 C101.31167,103.338138 97.2716161,103.831363 92.3472101,104.376707 C85.3605752,105.152137 47.579081,110.421249 22.6496692,123.214578 Z" id="Stroke-131" stroke="#2C2C2B" stroke-width="1.695" stroke-linejoin="round"></path>
                <path d="M79,168.948285 C74.4018477,171.45328 71.2658925,173.329264 69.5921344,174.576238 C63.3340512,179.238601 59.9005506,183.549164 57.3110998,186.915096 C47.412545,199.781866 43.3440155,215.822113 43.510174,226.905546 C43.6014723,232.995514 45.1625007,240.219076 46.588826,247 C40.3719731,246.056995 9.98239362,244.019314 -5.61328761e-13,226.905546 C5.42617803e-12,225.402379 1.79303873,222.828634 5.37911619,219.18431 C-2.46698925,180.924682 1.43335774,156.110586 17.0801571,144.742023 C18.0633672,144.264422 18.649867,143.944317 18.8396567,143.781708 L59.9900769,135 L79,168.948285 Z" id="eksedam-LF" stroke="#000000" stroke-width="1.5" fill="#FFFFFF"></path>
                <path d="M494.625883,23 L568.54343,30.8748667 L569.754546,32.1400134 L567.475016,38.5879117 C576.438163,47.2307373 582.970843,53.8806388 587.073056,58.5376162 C591.175269,63.1945937 596.306895,69.9230202 602.467933,78.7228957 L588.548177,80.167142 C592.038344,104.758306 597.522285,121.004791 605,128.906597 C603.059642,133.505369 595.759198,147.953533 583.098669,172.25109 C576.393994,168.841996 571.542247,166.644335 568.54343,165.658107 C560.978771,163.1703 554.372167,162.770415 550.180551,162.488423 C533.176152,161.34445 518.841766,167.753841 509.734552,175.258393 C504.987688,179.169917 499.324608,183.707098 494.625883,189.974485 C491.505755,194.136264 489.235422,199.720687 486.401912,204 C480.006469,204 473.872498,204 468,204 C510.803632,152.465709 536.235145,115.104261 544.294538,91.9156558 C544.294538,89.2140568 550.187984,83.3821086 536.708199,64.532838 C534.066405,61.2647216 532.612404,58.3600852 527.64674,53.120003 C524.668158,49.9768147 521.88706,45.5347329 514.159916,38.5879117 C510.989909,35.7380261 504.478564,30.5420555 494.625883,23 Z" id="rfrf-LB" stroke="#000000" stroke-width="1.5" fill="#FFFFFF"></path>
                <path d="M540.450237,68.9345094 C542.211771,71.5214679 543.274794,75.0758989 545.025061,78.3567354 C545.048848,78.4019883 545.072636,78.4472413 545.097676,78.4937512 C549.031393,85.9001454 548.928731,94.803657 545.018801,102.223878 C539.359857,112.962647 531.956906,125.762938 522.489441,139.636728 C511.122725,156.291059 501.232093,167.967569 490.563981,180.490057 C482.985753,189.384769 473.306704,200.276895 461.539355,212.433589 C453.481619,220.757611 442.465457,225.553164 430.905936,225.78697 C410.936874,226.191733 390.967811,226.595238 371,227 L373.785653,92.78236 C377.183193,40.5543529 379.749903,14.3395053 381.485782,14.137817 C385.757931,13.6414448 386.191952,14.5846705 390.206824,15.3973566 C390.206824,17.8948946 389.035545,87.1911106 389.035545,87.1911106 C397.169997,87.1911106 411.069198,85.1499302 425.925179,83.7288861 C451.221633,81.3091617 479.290541,78.8881542 486.383765,78.3567354 C504.310363,77.0136888 507.586706,74.906849 519.079381,72.3088744 C522.915154,71.4417794 530.912407,67.0671398 538.122232,66.0988777 C539.139107,65.9623138 539.915109,66.9075244 540.450237,68.9345094 Z" id="door-LB" stroke="#2C2C2B" fill="#FFFFFF"></path>
                <path d="M327.037728,19.7991244 C361.042413,16.7735084 379.029837,14.8404669 381,14 L373.775856,93.5330739 L373.775856,105.347075 L373.775856,133.43099 C372.007368,148.106713 371.523082,160.1319 371.357873,168.436407 C371.233966,174.617176 371.314068,177.742132 371.357873,180.016224 C371.509315,188.050095 370.301459,193.706253 370.991082,200.583658 C371.663183,207.306951 370.733256,211.33855 370.991082,217.917755 C371.146278,221.905873 371.074938,225.17856 370.991082,227.314828 C313.296809,228.20943 255.603788,229.104031 197.910766,229.998633 C192.715441,230.078821 188.112114,226.624457 186.750391,221.605166 C182.368595,205.45097 179.956792,191.273918 178.560024,180.016224 C176.781523,165.691324 174.32967,144.834832 177.621336,117.995536 C178.92799,107.341343 179.240886,103.379954 178.560024,106.11137" id="door-LF" stroke="#2C2C2B" stroke-width="1.695" fill="#FFFFFF" stroke-linejoin="round"></path>
                <path d="M612.572526,136 C608.143427,131.886484 602.435774,125.593505 597.715052,116.767566 C589.655316,101.700781 588.875957,87.4783164 589.013491,80.1045057 C591.494194,79.5984224 594.421882,79.1800773 597.715052,79.0452913 C601.894553,78.8749014 605.560848,79.2067801 608.539474,79.6810742 C609.391419,80.7046848 610.582106,82.3361039 611.510459,84.5549864 C613.050074,88.2348981 613.010596,91.4735765 612.996588,92.8201648 C612.935462,98.6630102 612.898532,114.56267 612.572526,136" id="light-spot-LB" fill="#A3A29C"></path>
                <path d="M612.572526,136 C608.143427,131.886484 602.435774,125.593505 597.715052,116.767566 C589.655316,101.700781 588.875957,87.4783164 589.013491,80.1045057 C591.494194,79.5984224 594.421882,79.1800773 597.715052,79.0452913 C601.894553,78.8749014 605.560848,79.2067801 608.539474,79.6810742 C609.391419,80.7046848 610.582106,82.3361039 611.510459,84.5549864 C613.050074,88.2348981 613.010596,91.4735765 612.996588,92.8201648 C612.935462,98.6630102 612.898532,114.56267 612.572526,136 Z" id="Stroke-144" stroke="#A3A29C" stroke-width="1.695" stroke-linejoin="round"></path>
                <path d="M160,227.499372 C160,255.942324 136.495803,279 107.500625,279 C78.5054474,279 55,255.942324 55,227.499372 C55,199.05642 78.5054474,176 107.500625,176 C136.495803,176 160,199.05642 160,227.499372" id="wheel-LF" fill="#FFFFFF"></path>
                <path d="M160,227.499372 C160,255.942324 136.495803,279 107.500625,279 C78.5054474,279 55,255.942324 55,227.499372 C55,199.05642 78.5054474,176 107.500625,176 C136.495803,176 160,199.05642 160,227.499372 Z" id="Stroke-147" stroke="#2C2C2B" stroke-width="2.859" stroke-linejoin="round"></path>
                <path d="M148,226.999373 C148,248.539259 130.092305,266 108.000627,266 C85.9089498,266 68,248.539259 68,226.999373 C68,205.460741 85.9089498,188 108.000627,188 C130.092305,188 148,205.460741 148,226.999373 Z" id="Stroke-149" stroke="#2C2C2B" stroke-width="1.616" stroke-linejoin="round"></path>
                <path d="M597,227.5 C597,255.942605 573.494832,279 544.5,279 C515.505168,279 492,255.942605 492,227.5 C492,199.057395 515.505168,176 544.5,176 C573.494832,176 597,199.057395 597,227.5" id="wheel-LB" fill="#FFFFFF"></path>
                <path d="M597,227.5 C597,255.942605 573.494832,279 544.5,279 C515.505168,279 492,255.942605 492,227.5 C492,199.057395 515.505168,176 544.5,176 C573.494832,176 597,199.057395 597,227.5 Z" id="Stroke-162" stroke="#2C2C2B" stroke-width="2.859" stroke-linejoin="round"></path>
                <path d="M585,228.000627 C585,249.539259 567.315189,267 545.5,267 C523.684811,267 506,249.539259 506,228.000627 C506,206.460741 523.684811,189 545.5,189 C567.315189,189 585,206.460741 585,228.000627 Z" id="Stroke-164" stroke="#2C2C2B" stroke-width="1.616" stroke-linejoin="round"></path>
                <path d="M371,16 C345.48129,16.429527 321.965375,18.3950525 293.967612,26.7381745 C271.248804,33.5088762 255.165036,41.6309551 240.975024,48.7972737 C213.138938,62.8548628 186.568698,80.191677 162,100.322928 C162.251916,100.773806 162.85852,101.467078 163.391178,101.88279 L163.640587,102.071179 L163.85365,102.301013 C164.297323,102.782033 165.296214,102.977958 168.03721,103.416276 L170.011178,103.739049 C174.930432,104.575497 179.958725,105 184.961951,105 C187.528736,105 190.126854,104.886967 192.688627,104.665923 C225.794894,101.804922 294.974022,95.5931079 358.419242,89.8685934 L371,16" id="glass-LF" fill="#A3A29C"></path>
                <path d="M371,16 C345.48129,16.429527 321.965375,18.3950525 293.967612,26.7381745 C271.248804,33.5088762 255.165036,41.6309551 240.975024,48.7972737 C213.138938,62.8548628 186.568698,80.191677 162,100.322928 C162.251916,100.773806 162.85852,101.467078 163.391178,101.88279 L163.640587,102.071179 L163.85365,102.301013 C164.297323,102.782033 165.296214,102.977958 168.03721,103.416276 L170.011178,103.739049 C174.930432,104.575497 179.958725,105 184.961951,105 C187.528736,105 190.126854,104.886967 192.688627,104.665923 C225.794894,101.804922 294.974022,95.5931079 358.419242,89.8685934 L371,16 Z" id="Stroke-177" stroke="#2C2C2B" stroke-width="1.695"></path>
                <path d="M492,24.7904869 C488.299185,23.1568351 484.385737,22.0029971 480.334331,21.4114806 C451.769454,17.2391312 422.850189,15.083777 394.375173,15.0076161 C392.618425,15.003808 390.902178,15.0025387 389.175806,15 C388.783449,38.9995769 388.392357,63.0004231 388,87 C413.012146,84.7380205 435.90303,82.665174 453.761616,81.0480237 C471.412632,79.4486443 484.790751,78.2364162 491.522843,77.6309368 L492,24.7904869" id="glass-LB" fill="#A3A29C"></path>
                <path d="M492,24.7904869 C488.299185,23.1568351 484.385737,22.0029971 480.334331,21.4114806 C451.769454,17.2391312 422.850189,15.083777 394.375173,15.0076161 C392.618425,15.003808 390.902178,15.0025387 389.175806,15 C388.783449,38.9995769 388.392357,63.0004231 388,87 C413.012146,84.7380205 435.90303,82.665174 453.761616,81.0480237 C471.412632,79.4486443 484.790751,78.2364162 491.522843,77.6309368 L492,24.7904869 Z" id="Stroke-179" stroke="#2C2C2B" stroke-width="1.695"></path>
                <path d="M521.461781,51.6643423 C515.797662,45.2556938 509.665082,39.1417678 503.234391,33.4918732 C500.824448,31.3748871 498.215346,29.5400823 495.452178,28 L495,78 C497.215795,77.7391392 499.417812,77.3077155 501.560958,76.6894251 L534,67.3398214 C530.079458,61.9144176 525.874582,56.6570683 521.461781,51.6643423" id="shoraa-LB" fill="#A3A29C"></path>
                <path d="M521.461781,51.6643423 C515.797662,45.2556938 509.665082,39.1417678 503.234391,33.4918732 C500.824448,31.3748871 498.215346,29.5400823 495.452178,28 L495,78 C497.215795,77.7391392 499.417812,77.3077155 501.560958,76.6894251 L534,67.3398214 C530.079458,61.9144176 525.874582,56.6570683 521.461781,51.6643423 Z" id="Stroke-181" stroke="#2C2C2B" stroke-width="1.695"></path>
                <path d="M570.7733,31 L568,38.7375426 C573.915142,44.3630455 580.160614,50.8081089 586.48867,58.1321572 C592.736608,65.367069 598.15009,72.4001857 602.817863,79 C604.211909,78.3215723 605.605954,77.6431445 607,76.9647168 C601.577889,69.2098422 595.643026,61.181368 589.158434,52.9746209 C582.954869,45.1231817 576.796909,37.8028474 570.7733,31" id="Fill-182" fill="#A3A29C"></path>
                <path d="M570.7733,31 L568,38.7375426 C573.915142,44.3630455 580.160614,50.8081089 586.48867,58.1321572 C592.736608,65.367069 598.15009,72.4001857 602.817863,79 C604.211909,78.3215723 605.605954,77.6431445 607,76.9647168 C601.577889,69.2098422 595.643026,61.181368 589.158434,52.9746209 C582.954869,45.1231817 576.796909,37.8028474 570.7733,31 Z" id="Stroke-183" stroke="#2C2C2B" stroke-width="1.695" stroke-linejoin="round"></path>
                <path d="M60,135.523928 L78.9098154,169.037399 C90.5079197,164.672987 98.9905366,162.330382 104.357666,162.009584 C116.092135,161.308205 126.173587,163.68351 136.028647,169.037399 C146.314157,174.625136 156.269287,183.455928 163.504796,195.350794 C167.667817,202.194622 169.645172,210.173346 172.921707,219 C172.921707,219 176.947805,218.431937 185,217.295811 C179.681261,192.170384 176.571197,171.69205 175.669808,155.860808 C174.76842,140.029566 175.805686,124.102984 178.781606,108.081064 C166.080167,108.232567 159.030309,105.248413 157.632031,99.1286025 C156.233754,93.0087916 153.60981,88.2992575 149.760199,85 C132.425699,87.7370194 123.338966,89.3866481 122.5,89.9488862 C122.054952,90.2471379 115.007836,93.7086083 104.357666,102.599243 C98.1651102,107.768715 92.3433227,115.727928 81.7371244,123.472332 C78.0444197,126.16866 70.7987116,130.185859 60,135.523928 Z" id="rfrf-LF" stroke="#000000" stroke-width="1.5" fill="#FFFFFF"></path>
                <path d="M197.040842,229.60194 C349.4929,227.13986 426.053984,225.737375 426.724093,225.394487 C441.456503,226.990811 455.440463,219.859315 468.675973,204 C480.891991,204 487,204 487,204 C483.541552,212.536172 481.825785,224.25541 481.852699,239.157713 C276.271556,241.052571 173.480984,242 173.480984,242 C174.338368,239.608816 174.17804,231.815803 173,218.620961 L185.083943,216.911352 C186.820781,221.872498 188.362054,225.067211 189.707761,226.495492 C191.053468,227.923773 193.497829,228.959256 197.040842,229.60194 Z" id="atb-L" stroke="#000000" stroke-width="1.5" fill="#FFFFFF"></path>
                <path d="M583,172.560312 C601.555755,183.409622 609.661382,200.556184 607.316881,224 C610.029934,223.011861 625.464385,213.043596 627,204.852525 C626.240989,201.494535 625.257902,168.020043 624.248809,165.286941 C623.462985,163.158556 622.065324,162.265908 618.213256,152.944919 C617.592006,151.441658 614.425422,146.946841 612.605693,142.968937 C611.219626,139.939015 611.368258,136.922531 611.106659,135.948124 C611.106659,135.53677 609.187881,133.220728 605.350324,129 L583,172.560312 Z" id="eksedam-LB" stroke="#000000" stroke-width="1.5" fill="#FFFFFF"></path>
                <path d="M22.6496692,123.214578 C20.5244522,124.305265 19.0719477,126.373503 18.7292927,128.755727 C18.3614425,131.31846 18.0956329,134.150688 18.021307,137.216815 C17.8701357,143.413902 18.5441078,148.773269 19.3856282,153 C29.1424777,149.147001 39.2407224,144.889762 49.6198939,140.182518 C54.2948672,138.062162 58.8640206,135.924008 63.3248346,133.776956 C71.7047652,129.742176 79.5694536,124.704421 86.669467,118.668777 C86.7072598,118.635726 86.7450526,118.603946 86.7828455,118.572166 C92.9430771,113.332291 98.67499,108.11784 104,103 C101.31167,103.338138 97.2716161,103.831363 92.3472101,104.376707 C85.3605752,105.152137 47.579081,110.421249 22.6496692,123.214578" id="light-spot-LF" fill="#A3A29C"></path>
            </g>
        </g>
    </g>
</svg>